<?xml version="1.0" standalone="no"?>
<!DOCTYPE svg PUBLIC "-//W3C//DTD SVG 20010904//EN"
 "http://www.w3.org/TR/2001/REC-SVG-20010904/DTD/svg10.dtd">
<svg version="1.0" xmlns="http://www.w3.org/2000/svg"
 width="512.000000pt" height="512.000000pt" viewBox="0 0 512.000000 512.000000"
 preserveAspectRatio="xMidYMid meet">
<metadata>
Created by potrace 1.14, written by Peter Selinger 2001-2017
</metadata>
<g transform="translate(0.000000,512.000000) scale(0.100000,-0.100000)"
fill="#000000" stroke="none">
<path d="M340 2555 l0 -915 250 0 250 0 2 475 3 475 149 -330 149 -330 137 0
137 0 149 329 149 329 3 -474 2 -474 305 0 305 0 2 446 3 445 360 -445 360
-446 257 0 257 0 11 38 c6 20 28 100 48 177 l37 140 257 3 257 2 9 -33 c5 -18
27 -99 48 -180 l38 -147 257 0 257 0 -47 148 c-26 81 -157 492 -292 915 l-244
767 -282 0 -282 0 -76 -237 c-42 -131 -82 -256 -90 -278 -12 -36 -14 -10 -14
238 l-1 277 -255 0 -255 0 -2 -458 -3 -459 -360 458 -360 458 -275 0 -275 1
-195 -425 c-107 -234 -197 -425 -200 -425 -3 1 -92 192 -199 425 l-194 425
-273 0 -274 0 0 -915z m3669 92 c44 -169 81 -309 81 -312 0 -3 -74 -5 -165 -5
-133 0 -165 3 -165 14 0 7 29 125 66 262 81 309 94 357 98 353 2 -2 40 -142
85 -312z"/>
</g>
</svg>
